
            <svg xmlns="http://www.w3.org/2000/svg" width="800" height="400" viewBox="0 0 800 400">
              <!-- https://grabient.com/HQVg7AnANKAMCMMQGYAcSAsYZgGyxlwCZFgTthldkZ4JsCjhYIMoNh5UIg?style=linearSwatches&steps=8&angle=135 -->
        <polygon points="1032.4555320336758,199.99999999999994 400.00000000000006,832.4555320336758 320.9430584957906,753.3985905294664 953.3985905294663,120.94305849579047" fill="rgb(255, 255, 196)" fill-opacity="1" /><polygon points="953.3985905294664,120.94305849579047 320.9430584957906,753.3985905294664 241.8861169915811,674.3416490252569 874.3416490252569,41.88611699158099" fill="rgb(255, 246, 170)" fill-opacity="1" /><polygon points="874.341649025257,41.88611699158099 241.8861169915811,674.3416490252569 162.82917548737163,595.2847075210475 795.2847075210474,-37.170824512628485" fill="rgb(255, 190, 142)" fill-opacity="1" /><polygon points="795.2847075210475,-37.170824512628485 162.82917548737157,595.2847075210475 83.77223398316208,516.2277660168379 716.2277660168379,-116.22776601683796" fill="rgb(255, 128, 114)" fill-opacity="1" /><polygon points="716.2277660168379,-116.22776601683796 83.77223398316211,516.2277660168379 4.715292478952605,437.1708245126285 637.1708245126283,-195.28470752104744" fill="rgb(247, 66, 87)" fill-opacity="1" /><polygon points="637.1708245126284,-195.28470752104744 4.715292478952577,437.1708245126285 -74.34164902525693,358.113883008419 558.1138830084188,-274.3416490252569" fill="rgb(226, 11, 61)" fill-opacity="1" /><polygon points="558.113883008419,-274.3416490252569 -74.3416490252569,358.113883008419 -153.3985905294664,279.05694150420953 479.0569415042094,-353.3985905294664" fill="rgb(202, 0, 38)" fill-opacity="1" /><polygon points="479.0569415042094,-353.3985905294664 -153.3985905294664,279.05694150420953 -232.45553203367587,200.00000000000006 399.99999999999994,-432.45553203367587" fill="rgb(176, 0, 18)" fill-opacity="1" /></svg>