
            <svg xmlns="http://www.w3.org/2000/svg" width="800" height="400" viewBox="0 0 800 400">
              <!-- https://grabient.com/HQVg7AnANKAMCMMQGYAcSAsYZgGyxlwCZFgTthldkZ4JsCjhYIMoNh5UIg?style=linearSwatches&steps=21&angle=135 -->
        <polygon points="1032.4555320336758,199.99999999999991 400.0000000000001,832.4555320336758 369.88306990315834,802.338601936834 1002.3386019368342,169.8830699031582" fill="rgb(255, 255, 196)" fill-opacity="1" /><polygon points="1002.3386019368343,169.88306990315826 369.88306990315846,802.3386019368343 339.7661398063167,772.2216718399925 972.2216718399925,139.76613980631654" fill="rgb(255, 255, 187)" fill-opacity="1" /><polygon points="972.2216718399925,139.76613980631654 339.7661398063167,772.2216718399925 309.6492097094749,742.1047417431507 942.1047417431507,109.64920970947483" fill="rgb(255, 255, 178)" fill-opacity="1" /><polygon points="942.1047417431507,109.64920970947483 309.6492097094749,742.1047417431507 279.53227961263315,711.987811646309 911.987811646309,79.53227961263312" fill="rgb(255, 243, 168)" fill-opacity="1" /><polygon points="911.9878116463091,79.53227961263318 279.53227961263326,711.9878116463092 249.41534951579152,681.8708815494674 881.8708815494673,49.41534951579146" fill="rgb(255, 225, 159)" fill-opacity="1" /><polygon points="881.8708815494674,49.415349515791405 249.41534951579158,681.8708815494674 219.29841941894986,651.7539514526256 851.7539514526256,19.298419418949695" fill="rgb(255, 205, 149)" fill-opacity="1" /><polygon points="851.7539514526256,19.298419418949745 219.2984194189498,651.7539514526256 189.1814893221081,621.6370213557839 821.6370213557839,-10.818510677891961" fill="rgb(255, 184, 139)" fill-opacity="1" /><polygon points="821.6370213557839,-10.818510677891968 189.1814893221081,621.637021355784 159.06455922526638,591.5200912589422 791.5200912589421,-40.93544077473368" fill="rgb(255, 163, 129)" fill-opacity="1" /><polygon points="791.5200912589422,-40.93544077473368 159.06455922526638,591.5200912589423 128.94762912842467,561.4031611621006 761.4031611621004,-71.05237087157539" fill="rgb(255, 141, 120)" fill-opacity="1" /><polygon points="761.4031611621006,-71.05237087157539 128.94762912842467,561.4031611621006 98.83069903158295,531.2862310652588 731.2862310652588,-101.1693009684171" fill="rgb(255, 119, 110)" fill-opacity="1" /><polygon points="731.2862310652588,-101.1693009684171 98.83069903158295,531.2862310652588 68.71376893474124,501.1693009684171 701.169300968417,-131.28623106525882" fill="rgb(255, 97, 100)" fill-opacity="1" /><polygon points="701.169300968417,-131.28623106525882 68.71376893474124,501.1693009684171 38.596838837899526,471.0523708715754 671.0523708715752,-161.40316116210053" fill="rgb(250, 75, 91)" fill-opacity="1" /><polygon points="671.0523708715754,-161.40316116210053 38.596838837899526,471.05237087157536 8.479908741057812,440.9354407747337 640.9354407747336,-191.52009125894224" fill="rgb(243, 54, 81)" fill-opacity="1" /><polygon points="640.9354407747337,-191.52009125894224 8.479908741057812,440.93544077473365 -21.6370213557839,410.818510677892 610.8185106778919,-221.63702135578396" fill="rgb(236, 34, 72)" fill-opacity="1" /><polygon points="610.8185106778919,-221.63702135578393 -21.6370213557839,410.818510677892 -51.753951452625614,380.70158058105034 580.7015805810502,-251.75395145262564" fill="rgb(228, 16, 64)" fill-opacity="1" /><polygon points="580.7015805810502,-251.7539514526256 -51.753951452625614,380.7015805810503 -81.87088154946733,350.5846504842086 550.5846504842084,-281.8708815494673" fill="rgb(220, 0, 55)" fill-opacity="1" /><polygon points="550.5846504842085,-281.87088154946736 -81.87088154946736,350.58465048420857 -111.98781164630907,320.4677203873669 520.4677203873667,-311.987811646309" fill="rgb(212, 0, 47)" fill-opacity="1" /><polygon points="520.4677203873667,-311.987811646309 -111.98781164630904,320.4677203873669 -142.10474174315075,290.35079029052525 490.3507902905251,-342.10474174315067" fill="rgb(203, 0, 39)" fill-opacity="1" /><polygon points="490.3507902905251,-342.1047417431508 -142.10474174315075,290.35079029052514 -172.22167183999247,260.2338601936835 460.2338601936833,-372.22167183999244" fill="rgb(195, 0, 32)" fill-opacity="1" /><polygon points="460.2338601936833,-372.2216718399925 -172.22167183999247,260.2338601936834 -202.33860193683418,230.11693009684174 430.11693009684166,-402.33860193683415" fill="rgb(186, 0, 24)" fill-opacity="1" /><polygon points="430.11693009684166,-402.33860193683415 -202.33860193683418,230.1169300968418 -232.4555320336759,200.00000000000009 399.9999999999999,-432.4555320336758" fill="rgb(176, 0, 18)" fill-opacity="1" /></svg>